<?xml version="1.0" encoding="UTF-8"?>
<svg id="Capa_1" xmlns="http://www.w3.org/2000/svg" version="1.1" viewBox="0 0 123.01 69.61">
  <!-- Generator: Adobe Illustrator 30.5.1, SVG Export Plug-In . SVG Version: 2.1.4 Build 3)  -->
  <defs>
    <style>
      .st0 {
        fill: #eb5b5e;
        fill-rule: evenodd;
      }
    </style>
  </defs>
  <path class="st0" d="M48.51,61.03c0-5.57,3.79-9.8,8.85-9.7,2.27.04,3.47-.81,4.79-2.28,7.21-7.9,14.45-15.77,21.74-23.61.99-1.07,1.99-3,3.8-1.38,1.55,1.38.05,2.61-.79,3.73-6.45,8.66-12.84,17.33-19.37,25.95-1.09,1.44-1.54,2.66-.97,4.52,1.16,3.71-.21,6.9-3.17,9.25-1.34,1.15-3.01,1.86-4.77,2.04-1.76.18-3.54-.17-5.1-1.01-3.31-1.62-4.95-4.4-5.01-7.52Z"/>
  <path class="st0" d="M57.75,14.7c7.04-.04,13.99,1.62,20.23,4.84,1,.52,3.05,1.59,2.58,2.56-.92,1.81-1.59,2.87-4.58,1.28-6.64-3.5-14.18-4.94-21.66-4.14-21.95,2.13-37.61,19.12-37.82,41.01,0,1.16.26,3.04-1.68,3.06-2.38,0-2.85-.79-2.78-2.88.58-19.1,9.34-33.07,26.67-41.54,5.93-2.84,12.45-4.28,19.04-4.19Z"/>
  <path class="st0" d="M103.24,58v2.91c0,1.39-.35,2.33-1.97,2.38-1.81.06-2.58-1.28-2.53-2.75.17-7.67-1.29-13.77-5.16-20.42-1.22-2.01-2.59-3.93-4.09-5.75-.71-.9-.97-1.48-.27-2.56,1.2-1.86,2.01-2.22,3.6-.24,6.44,8.03,10.06,17.1,10.42,26.43Z"/>
  <path class="st0" d="M71.76.81c-3.37-.53-6.78-.8-10.19-.81C27.65,0,0,25.83,0,57.68c-.04,1.86.05,3.72.25,5.57l6.02.06c-.14-1.45-.2-2.93-.2-4.41C6.08,31.77,28.84,9.78,56.92,9.78c4.01,0,8.02.46,11.92,1.37l2.91-10.34Z"/>
  <path class="st0" d="M96.04,9.96c-5.97-3.8-12.54-6.58-19.45-8.21l-3.03,10.74c5.13,1.72,9.95,4.24,14.28,7.46l8.2-9.98Z"/>
  <path class="st0" d="M117.87,34.65l-13.51,6.61c2.25,5.61,3.4,11.6,3.4,17.64,0,1.5-.07,2.97-.21,4.44h15.35c.13-1.89.15-3.78.08-5.67,0-7.95-1.74-15.8-5.1-23.01Z"/>
  <path class="st0" d="M115.62,30.33c-3.94-6.83-9.23-12.81-15.55-17.57l-8.45,10.3c4.36,3.93,7.99,8.6,10.71,13.78l13.29-6.5Z"/>
</svg>